<svg id="图层_1" data-name="图层 1" xmlns="http://www.w3.org/2000/svg" xmlns:xlink="http://www.w3.org/1999/xlink" viewBox="0 0 1831.33333 792"><defs><style>.cls-1{fill:url(#未命名的渐变_6);}.cls-2{fill:url(#未命名的渐变_6-2);}.cls-3{fill:url(#未命名的渐变_6-3);}.cls-4{fill:url(#未命名的渐变_6-4);}.cls-5{fill:url(#未命名的渐变_6-5);}.cls-6{fill:url(#未命名的渐变_6-6);}.cls-7{fill:url(#未命名的渐变_6-7);}.cls-8{fill:url(#未命名的渐变_6-8);}.cls-9{fill:url(#未命名的渐变_6-9);}.cls-10{fill:url(#未命名的渐变_6-10);}.cls-11{fill:url(#未命名的渐变_6-11);}.cls-12{fill:url(#未命名的渐变_6-12);}.cls-13{font-size:200px;fill:#027dcb;font-family:Constantia-BoldItalic, Constantia;font-weight:700;font-style:italic;}.cls-14{letter-spacing:-0.01514em;}</style><linearGradient id="未命名的渐变_6" x1="712.25891" y1="653.80904" x2="712.25891" y2="224.5861" gradientUnits="userSpaceOnUse"><stop offset="0" stop-color="#0079cd"/><stop offset="1" stop-color="#19c6b3"/></linearGradient><linearGradient id="未命名的渐变_6-2" x1="681.87076" y1="505.97032" x2="681.87076" y2="569.34388" xlink:href="#未命名的渐变_6"/><linearGradient id="未命名的渐变_6-3" x1="728.98886" y1="505.97032" x2="728.98886" y2="569.34388" xlink:href="#未命名的渐变_6"/><linearGradient id="未命名的渐变_6-4" x1="776.10696" y1="505.97032" x2="776.10696" y2="569.34388" xlink:href="#未命名的渐变_6"/><linearGradient id="未命名的渐变_6-5" x1="1054.7661" y1="505.97032" x2="1054.7661" y2="569.34388" xlink:href="#未命名的渐变_6"/><linearGradient id="未命名的渐变_6-6" x1="1101.88201" y1="505.97032" x2="1101.88201" y2="569.34388" xlink:href="#未命名的渐变_6"/><linearGradient id="未命名的渐变_6-7" x1="1149.00011" y1="505.97032" x2="1149.00011" y2="569.34388" xlink:href="#未命名的渐变_6"/><linearGradient id="未命名的渐变_6-8" x1="1432.1421" y1="505.97032" x2="1432.1421" y2="569.34388" xlink:href="#未命名的渐变_6"/><linearGradient id="未命名的渐变_6-9" x1="1479.2602" y1="505.97032" x2="1479.2602" y2="569.34388" xlink:href="#未命名的渐变_6"/><linearGradient id="未命名的渐变_6-10" x1="1526.3783" y1="505.97032" x2="1526.3783" y2="569.34388" xlink:href="#未命名的渐变_6"/><linearGradient id="未命名的渐变_6-11" x1="1077.21675" y1="455.71449" x2="1077.21675" y2="601.01879" xlink:href="#未命名的渐变_6"/><linearGradient id="未命名的渐变_6-12" x1="1399.5666" y1="653.36561" x2="1399.5666" y2="225.29206" xlink:href="#未命名的渐变_6"/></defs><path class="cls-1" d="M1231.70059,519.7997c-66.14116-30.70664-132.78624-43.59851-210.1901-22.67515-69.78718,18.73787-129.19888,61.54321-194.51442,91.90495-33.74754,15.60416-71.9646,27.561-110.10359,25.54347a185.31035,185.31035,0,0,1-106.30806-40.61721c-38.60892-31.6303-61.4293-79.82771-67.013-128.91922-.16774-1.68355-.309-3.16654-.41136-5.17679l10.6632,10.25387-80.73019.05335,10.72448-10.72475.13079,198.73748a10.84905,10.84905,0,0,1-10.85582,10.85609l-58.18842.0383a10.88774,10.88774,0,0,1-10.89466-10.89439l-.07607-115.48788,10.97019,10.96991-52.42234.03475a10.99779,10.99779,0,0,1-11.00465-10.99071c-.00368-.01287-.08763-136.88651-.0903-136.90075L362.48125,396.9l-47.17993.03092a11.11935,11.11935,0,0,1-11.12669-11.11164c0-.01342-.116-176.26156-.116-176.27619l11.24215,11.24218-62.90658.04145,11.28374-11.2836.19974,303.24588a11.47651,11.47651,0,0,1-11.4687,11.48375c-.01418,0-65.00345.04268-65.0189.04268l0-23.05287h0l65.00354.043L240.91071,512.789c-.00287-.01466.20183-303.24713.19973-303.26062a11.27608,11.27608,0,0,1,11.28375-11.26914l62.90658.04145a11.23569,11.23569,0,0,1,11.2427,11.24243l-.11656,176.26166-11.12559-11.12614,47.17993.03119a11.08786,11.08786,0,0,1,11.09495,11.09522l-.09029,136.88622-11.00466-11.00466c.00656.00088,52.429.03414,52.43651.03476a10.9634,10.9634,0,0,1,10.95655,10.97045l-.07606,115.48788-10.89412-10.89412,58.18842.03858L462.23674,638.1797l.13134-198.73748a10.71806,10.71806,0,0,1,10.725-10.725l80.73019.05308A10.69472,10.69472,0,0,1,564.487,439.0247a143.21511,143.21511,0,0,0,2.02366,16.51712,191.27608,191.27608,0,0,0,15.66425,48.99259c28.64241,63.04907,101.89393,99.1933,169.56026,86.3134,70.53453-14.0272,128.41709-61.74438,192.72381-92.48112,95.04555-49.2237,194.44168-54.77381,292.66876-10.15144Z"/><path class="cls-2" d="M681.87076,567.40186a5.60314,5.60314,0,0,1-5.60357-5.60356V518.68806a5.60357,5.60357,0,0,1,11.20713,0V561.7983A5.60314,5.60314,0,0,1,681.87076,567.40186Z"/><path class="cls-3" d="M728.98886,575.28735a5.60314,5.60314,0,0,1-5.60357-5.60357v-58.8812a5.60356,5.60356,0,1,1,11.20713,0v58.8812A5.60314,5.60314,0,0,1,728.98886,575.28735Z"/><path class="cls-4" d="M776.107,567.40186a5.60314,5.60314,0,0,1-5.60357-5.60356V518.68806a5.60357,5.60357,0,0,1,11.20713,0V561.7983A5.60314,5.60314,0,0,1,776.107,567.40186Z"/><path class="cls-5" d="M1054.7661,567.40186a5.60314,5.60314,0,0,1-5.60357-5.60356V518.68806a5.60357,5.60357,0,0,1,11.20713,0V561.7983A5.60314,5.60314,0,0,1,1054.7661,567.40186Z"/><path class="cls-6" d="M1101.882,575.28735a5.60314,5.60314,0,0,1-5.60357-5.60357v-58.8812a5.60357,5.60357,0,1,1,11.20713,0v58.8812A5.60314,5.60314,0,0,1,1101.882,575.28735Z"/><path class="cls-7" d="M1149.00011,567.40186a5.60314,5.60314,0,0,1-5.60357-5.60356V518.68806a5.60357,5.60357,0,0,1,11.20713,0V561.7983A5.60314,5.60314,0,0,1,1149.00011,567.40186Z"/><path class="cls-8" d="M1432.1421,567.40186a5.60314,5.60314,0,0,1-5.60356-5.60356V518.68806a5.60357,5.60357,0,0,1,11.20713,0V561.7983A5.60314,5.60314,0,0,1,1432.1421,567.40186Z"/><path class="cls-9" d="M1479.2602,575.28735a5.60314,5.60314,0,0,1-5.60356-5.60357v-58.8812a5.60356,5.60356,0,1,1,11.20712,0v58.8812A5.60314,5.60314,0,0,1,1479.2602,575.28735Z"/><path class="cls-10" d="M1526.3783,567.40186a5.60315,5.60315,0,0,1-5.60357-5.60356V518.68806a5.60357,5.60357,0,0,1,11.20713,0V561.7983A5.60314,5.60314,0,0,1,1526.3783,567.40186Z"/><path class="cls-11" d="M1433.94684,465.78171c-43.31325,12.31006-84.41409,30.43956-123.71839,50.23508-58.311,28.7024-112.27924,63.92578-175.56778,76.02379-62.12952,10.50942-126.078-4.31211-181.67533-32.951-57.755-28.376-110.24521-75.07463-175.0813-91.64181C710.97427,449.3839,642.26439,477.506,587.00088,514.08482a142.908,142.908,0,0,0,10.221,15.95648c42.39556-30.465,92.3045-55.39348,145.67408-52.58376,65.92287,3.30522,118.945,47.80158,173.5923,80.28583,28.18527,17.42769,57.61657,32.87662,89.2997,43.36689,42.37914,13.8442,88.35136,19.96926,132.66549,12.98889,66.13136-10.71627,124.15507-46.0439,183.7816-73.75172,71.09375-34.74936,148.53883-58.10909,227.84736-58.38553a17.47357,17.47357,0,0,0,17.35018-17.51027v0a17.56114,17.56114,0,0,0-18.43647-17.50868A502.62692,502.62692,0,0,0,1433.94684,465.78171Z"/><path class="cls-12" d="M1237.12774,488.21525c66.14708,29.56547,125.20493,72.15229,193.88735,94.56969a406.73652,406.73652,0,0,0,119.44957,20.72451,17.47941,17.47941,0,0,1,16.968,17.50276v.5522a17.5601,17.5601,0,0,1-18.32473,17.515,461.67237,461.67237,0,0,1-56.39093-5.69311c-74.002-11.15685-141.62072-46.60058-205.15575-83.8386-18.73208-11.08582-37.27646-21.12013-55.86062-29.748Z"/><text/><text class="cls-13" transform="translate(365.83647 357.08344)"><tspan class="cls-14">N</tspan><tspan x="140.91797" y="0">anoBaseLib</tspan></text><text/><text/></svg>