<svg id="图层_1" data-name="图层 1" xmlns="http://www.w3.org/2000/svg" xmlns:xlink="http://www.w3.org/1999/xlink" viewBox="0 0 1822.66667 792"><defs><style>.cls-1{fill:url(#未命名的渐变_6);}.cls-2{fill:url(#未命名的渐变_6-2);}.cls-3{fill:url(#未命名的渐变_6-3);}.cls-4{fill:url(#未命名的渐变_6-4);}.cls-5{fill:url(#未命名的渐变_6-5);}.cls-6{fill:url(#未命名的渐变_6-6);}.cls-7{fill:url(#未命名的渐变_6-7);}.cls-8{fill:url(#未命名的渐变_6-8);}.cls-9{fill:url(#未命名的渐变_6-9);}.cls-10{fill:url(#未命名的渐变_6-10);}.cls-11{fill:url(#未命名的渐变_6-11);}.cls-12{fill:url(#未命名的渐变_6-12);}.cls-13{font-size:245px;fill:#027dcb;font-family:Perpetua-BoldItalic, Perpetua;font-weight:700;font-style:italic;}</style><linearGradient id="未命名的渐变_6" x1="703.59224" y1="653.80904" x2="703.59224" y2="224.5861" gradientUnits="userSpaceOnUse"><stop offset="0" stop-color="#0079cd"/><stop offset="1" stop-color="#19c6b3"/></linearGradient><linearGradient id="未命名的渐变_6-2" x1="673.20409" y1="505.97032" x2="673.20409" y2="569.34388" xlink:href="#未命名的渐变_6"/><linearGradient id="未命名的渐变_6-3" x1="720.32219" y1="505.97032" x2="720.32219" y2="569.34388" xlink:href="#未命名的渐变_6"/><linearGradient id="未命名的渐变_6-4" x1="767.44029" y1="505.97032" x2="767.44029" y2="569.34388" xlink:href="#未命名的渐变_6"/><linearGradient id="未命名的渐变_6-5" x1="1046.09943" y1="505.97032" x2="1046.09943" y2="569.34388" xlink:href="#未命名的渐变_6"/><linearGradient id="未命名的渐变_6-6" x1="1093.21534" y1="505.97032" x2="1093.21534" y2="569.34388" xlink:href="#未命名的渐变_6"/><linearGradient id="未命名的渐变_6-7" x1="1140.33344" y1="505.97032" x2="1140.33344" y2="569.34388" xlink:href="#未命名的渐变_6"/><linearGradient id="未命名的渐变_6-8" x1="1423.47543" y1="505.97032" x2="1423.47543" y2="569.34388" xlink:href="#未命名的渐变_6"/><linearGradient id="未命名的渐变_6-9" x1="1470.59353" y1="505.97032" x2="1470.59353" y2="569.34388" xlink:href="#未命名的渐变_6"/><linearGradient id="未命名的渐变_6-10" x1="1517.71163" y1="505.97032" x2="1517.71163" y2="569.34388" xlink:href="#未命名的渐变_6"/><linearGradient id="未命名的渐变_6-11" x1="1068.55008" y1="455.71449" x2="1068.55008" y2="601.01879" xlink:href="#未命名的渐变_6"/><linearGradient id="未命名的渐变_6-12" x1="1390.89994" y1="653.36561" x2="1390.89994" y2="225.29206" xlink:href="#未命名的渐变_6"/></defs><path class="cls-1" d="M1223.03392,519.7997c-66.14116-30.70664-132.78624-43.59851-210.19009-22.67515C943.05664,515.86242,883.645,558.66776,818.3294,589.0295c-33.74754,15.60416-71.9646,27.561-110.10359,25.54347a185.3103,185.3103,0,0,1-106.308-40.61721c-38.60893-31.6303-61.4293-79.82771-67.013-128.91922-.16774-1.68355-.309-3.16654-.41136-5.17679l10.66319,10.25387-80.73018.05335,10.72447-10.72475.13079,198.73748a10.849,10.849,0,0,1-10.85581,10.85609l-58.18842.0383A10.88776,10.88776,0,0,1,395.3428,638.1797l-.07606-115.48788,10.97018,10.96991-52.42233.03475a10.99779,10.99779,0,0,1-11.00466-10.99071c-.00368-.01287-.08763-136.88651-.0903-136.90075l11.095,11.095-47.17994.03092A11.11935,11.11935,0,0,1,295.508,385.81928c0-.01342-.116-176.26156-.116-176.27619l11.24215,11.24218-62.90658.04145,11.28374-11.2836L255.211,512.789a11.47649,11.47649,0,0,1-11.4687,11.48375c-.01418,0-65.00344.04268-65.0189.04268l0-23.05287h0l65.00354.043L232.24405,512.789c-.00288-.01466.20183-303.24713.19973-303.26062a11.27607,11.27607,0,0,1,11.28374-11.26914l62.90658.04145a11.23569,11.23569,0,0,1,11.2427,11.24243l-.11656,176.26166-11.12559-11.12614,47.17994.03119a11.08786,11.08786,0,0,1,11.09494,11.09522l-.09029,136.88622-11.00465-11.00466c.00655.00088,52.429.03414,52.4365.03476a10.96341,10.96341,0,0,1,10.95656,10.97045l-.07607,115.48788-10.89411-10.89412,58.18842.03858L453.57008,638.1797l.13133-198.73748a10.71807,10.71807,0,0,1,10.725-10.725l80.73018.05308a10.69474,10.69474,0,0,1,10.66372,10.25443,143.21728,143.21728,0,0,0,2.02365,16.51712,191.27608,191.27608,0,0,0,15.66425,48.99259c28.64241,63.04907,101.89393,99.1933,169.56026,86.3134,70.53453-14.0272,128.41709-61.74438,192.72381-92.48112,95.04556-49.2237,194.44168-54.77381,292.66876-10.15144Z"/><path class="cls-2" d="M673.20409,567.40186a5.60314,5.60314,0,0,1-5.60356-5.60356V518.68806a5.60357,5.60357,0,0,1,11.20713,0V561.7983A5.60314,5.60314,0,0,1,673.20409,567.40186Z"/><path class="cls-3" d="M720.32219,575.28735a5.60314,5.60314,0,0,1-5.60356-5.60357v-58.8812a5.60357,5.60357,0,1,1,11.20713,0v58.8812A5.60315,5.60315,0,0,1,720.32219,575.28735Z"/><path class="cls-4" d="M767.44029,567.40186a5.60315,5.60315,0,0,1-5.60357-5.60356V518.68806a5.60357,5.60357,0,0,1,11.20713,0V561.7983A5.60314,5.60314,0,0,1,767.44029,567.40186Z"/><path class="cls-5" d="M1046.09943,567.40186a5.60314,5.60314,0,0,1-5.60356-5.60356V518.68806a5.60357,5.60357,0,0,1,11.20713,0V561.7983A5.60314,5.60314,0,0,1,1046.09943,567.40186Z"/><path class="cls-6" d="M1093.21534,575.28735a5.60314,5.60314,0,0,1-5.60356-5.60357v-58.8812a5.60357,5.60357,0,1,1,11.20713,0v58.8812A5.60314,5.60314,0,0,1,1093.21534,575.28735Z"/><path class="cls-7" d="M1140.33344,567.40186a5.60314,5.60314,0,0,1-5.60356-5.60356V518.68806a5.60357,5.60357,0,0,1,11.20713,0V561.7983A5.60315,5.60315,0,0,1,1140.33344,567.40186Z"/><path class="cls-8" d="M1423.47543,567.40186a5.60314,5.60314,0,0,1-5.60356-5.60356V518.68806a5.60357,5.60357,0,0,1,11.20713,0V561.7983A5.60314,5.60314,0,0,1,1423.47543,567.40186Z"/><path class="cls-9" d="M1470.59353,575.28735a5.60314,5.60314,0,0,1-5.60356-5.60357v-58.8812a5.60357,5.60357,0,1,1,11.20713,0v58.8812A5.60314,5.60314,0,0,1,1470.59353,575.28735Z"/><path class="cls-10" d="M1517.71163,567.40186a5.60314,5.60314,0,0,1-5.60356-5.60356V518.68806a5.60357,5.60357,0,0,1,11.20713,0V561.7983A5.60314,5.60314,0,0,1,1517.71163,567.40186Z"/><path class="cls-11" d="M1425.28018,465.78171c-43.31326,12.31006-84.41409,30.43956-123.71839,50.23508-58.311,28.7024-112.27924,63.92578-175.56778,76.02379-62.12953,10.50942-126.078-4.31211-181.67534-32.951-57.755-28.376-110.24521-75.07463-175.0813-91.64181C702.30761,449.3839,633.59772,477.506,578.33421,514.08482a142.908,142.908,0,0,0,10.221,15.95648c42.39557-30.465,92.3045-55.39348,145.67408-52.58376,65.92287,3.30522,118.945,47.80158,173.5923,80.28583,28.18528,17.42769,57.61658,32.87662,89.2997,43.36689,42.37915,13.8442,88.35136,19.96926,132.66549,12.98889,66.13137-10.71627,124.15507-46.0439,183.7816-73.75172,71.09375-34.74936,148.53883-58.10909,227.84736-58.38553a17.47357,17.47357,0,0,0,17.35018-17.51027v0a17.56113,17.56113,0,0,0-18.43646-17.50868A502.62674,502.62674,0,0,0,1425.28018,465.78171Z"/><path class="cls-12" d="M1228.46107,488.21525c66.14708,29.56547,125.20493,72.15229,193.88735,94.56969A406.73659,406.73659,0,0,0,1541.798,603.50945a17.47942,17.47942,0,0,1,16.968,17.50276v.5522a17.56012,17.56012,0,0,1-18.32474,17.515,461.672,461.672,0,0,1-56.39092-5.69311c-74.002-11.15685-141.62073-46.60058-205.15576-83.8386-18.73208-11.08582-37.27646-21.12013-55.86062-29.748Z"/><text/><text class="cls-13" transform="translate(327.16986 357.08344)">NanoBaseLib</text><text/></svg>